<?xml version="1.0" encoding="UTF-8" standalone="no"?>
<!-- Created with Inkscape (http://www.inkscape.org/) -->

<svg
   width="32"
   height="32"
   viewBox="0 0 32 32"
   version="1.1"
   id="svg1"
   xml:space="preserve"
   xmlns="http://www.w3.org/2000/svg"
   xmlns:svg="http://www.w3.org/2000/svg"><defs
     id="defs1" /><g
     id="layer1"><g
       id="g1"
       transform="matrix(1,0,0,0.99978862,0,-0.99352228)"><ellipse
         cx="16"
         cy="17.76923"
         rx="10"
         ry="9.2299995"
         fill="#9ca3af"
         id="ellipse1"
         style="stroke-width:1.01274" /><ellipse
         cx="7"
         cy="11.615001"
         rx="3.5"
         ry="4.6199999"
         fill="#9ca3af"
         id="ellipse2"
         style="stroke-width:1.0127" /><ellipse
         cx="7"
         cy="12.128204"
         rx="2"
         ry="2.8199999"
         fill="#6b7280"
         id="ellipse3"
         style="stroke-width:1.01274" /><ellipse
         cx="25"
         cy="11.615385"
         rx="3.5"
         ry="4.6199999"
         fill="#9ca3af"
         id="ellipse4"
         style="stroke-width:1.01274" /><ellipse
         cx="25"
         cy="12.13"
         rx="2"
         ry="2.8199999"
         fill="#6b7280"
         id="ellipse5"
         style="stroke-width:1.01265" /><path
         d="m 10.998196,12.631828 q 2.001804,-0.508668 4.003608,0"
         fill="none"
         stroke="#1f2937"
         stroke-width="0.996392"
         stroke-linecap="round"
         id="path5" /><path
         d="m 16.998196,12.631828 q 2.001804,-0.508668 4.003608,0"
         fill="none"
         stroke="#1f2937"
         stroke-width="0.996392"
         stroke-linecap="round"
         id="path6" /><ellipse
         cx="13"
         cy="15.719999"
         fill="#1f2937"
         id="circle6"
         rx="1.2"
         ry="1.23"
         style="stroke-width:1.01242" /><path
         d="m 18.499273,15.719272 q 1.000727,1.022912 2.001454,0"
         fill="none"
         stroke="#1f2937"
         stroke-width="1.49854"
         stroke-linecap="round"
         id="path7" /><ellipse
         style="fill:#6b7280;stroke-width:120;stroke-linecap:round;stroke-linejoin:round;paint-order:stroke fill markers"
         id="path9"
         cx="16.019827"
         cy="23.197025"
         rx="6.23"
         ry="3.5699999" /><ellipse
         cx="16"
         cy="18.275"
         rx="2"
         ry="3.0799999"
         fill="#1f2937"
         id="ellipse7"
         style="stroke-width:1.01242" /><path
         d="m 11.9995,21.8495 q 4.0005,2.048294 8.001,0"
         fill="none"
         stroke="#1f2937"
         stroke-width="1.499"
         stroke-linecap="round"
         id="path8" /><path
         style="fill:#6b7280;fill-opacity:1;stroke-width:4.75836;stroke-linecap:round;stroke-linejoin:round;paint-order:stroke fill markers"
         d="m 15.226766,26.722756 c -0.07633,-0.0088 -0.308303,-0.03543 -0.51549,-0.05909 -1.30265,-0.148755 -2.646465,-0.621546 -3.507555,-1.234053 -1.5722177,-1.118343 -1.8293558,-2.651442 -0.653093,-3.89384 0.681382,-0.719693 1.665869,-1.250315 2.911578,-1.569294 0.239901,-0.06143 0.510171,-0.123768 0.600599,-0.138529 l 0.164416,-0.02684 0.141786,0.294784 c 0.286617,0.595902 0.732264,1.05074 1.172911,1.197099 0.250967,0.08336 0.665197,0.08336 0.916164,0 0.43984,-0.146091 0.886307,-0.601224 1.171569,-1.194308 0.09233,-0.191964 0.163267,-0.291869 0.207069,-0.291633 0.140795,7.59e-4 0.930178,0.198317 1.338914,0.335089 0.936485,0.313367 1.663753,0.743834 2.237995,1.324659 0.563626,0.570089 0.805788,1.09007 0.805788,1.730227 0,0.373697 -0.0814,0.680637 -0.283942,1.070632 -0.183805,0.353922 -0.775081,0.960527 -1.216764,1.248308 -0.853648,0.5562 -1.962785,0.94337 -3.251549,1.135029 -0.376081,0.05593 -1.943602,0.106138 -2.240396,0.07176 z m 1.976109,-3.169678 c 0.878505,-0.12253 1.789154,-0.393713 2.701304,-0.804423 0.571556,-0.257353 0.752517,-0.409256 0.833925,-0.700019 0.04294,-0.153381 0.04409,-0.226529 0.0058,-0.369766 -0.102729,-0.384091 -0.358856,-0.585002 -0.738924,-0.579625 -0.200735,0.0028 -0.302989,0.03473 -0.654275,0.204035 -1.606811,0.774428 -3.271656,0.984634 -4.910961,0.620064 -0.579823,-0.128948 -1.261407,-0.364868 -1.788647,-0.619112 -0.353094,-0.170268 -0.45511,-0.202145 -0.656031,-0.204987 -0.183656,-0.0026 -0.27167,0.01757 -0.385907,0.08842 -0.430735,0.267141 -0.503206,0.84268 -0.150519,1.195366 0.160823,0.160823 0.870317,0.497029 1.547579,0.733345 0.735134,0.25651 1.633626,0.445021 2.438661,0.511651 0.34517,0.02857 1.311086,-0.01261 1.758018,-0.07495 z"
         id="path10" /></g></g></svg>
